<?xml version="1.0" encoding="UTF-8"?>
<svg id="_图层_2" xmlns="http://www.w3.org/2000/svg" version="1.1" viewBox="0 0 1920 1587.5">
  <!-- Generator: Adobe Illustrator 29.4.0, SVG Export Plug-In . SVG Version: 2.1.0 Build 152)  -->
  <defs>
    <style>
      .st0 {
        fill: #0f0f0f;
      }
    </style>
  </defs>
  <g id="_图层_1-2">
    <g>
      <polygon class="st0" points="1482.2 888.5 1551.9 888.5 1516.3 738.5 1482.2 888.5"/>
      <polygon class="st0" points="290 888.5 359.7 888.5 324 738.5 290 888.5"/>
      <path class="st0" d="M1902.9,1080l-136.1-292.8v292.8h-64v-481.6h56.2l136.1,292.1v-292.1h24.9V0H0v598.4h33.3v381.6h131.6v100H0h878.3c-11.8-5.1-23.2-12.4-34-22-23-20.4-38.3-49.9-45.9-88.5l56.6-52c6,22.4,14.8,39.7,26.4,52,11.6,12.3,25.3,18.4,41.2,18.4s21.2-3.6,28.5-10.9,10.9-17.9,10.9-31.9-2.5-20.8-7.4-28.3c-4.9-7.5-11.1-13.6-18.5-18.4-7.4-4.8-17.8-10.3-31.2-16.5-19.7-9.2-35.7-18.4-48.2-27.6-12.4-9.2-23.2-23.1-32.2-41.8-9-18.6-13.5-43.1-13.5-73.4s5.4-61.2,16.2-83.5c10.8-22.4,24.9-39,42.2-50,17.3-11,36-16.5,56-16.5s49.2,9.7,68.9,29,32.4,46.7,38.1,82.2l-57.4,52c-4.4-19.7-11.1-35.1-20.3-46-9.2-11-20.3-16.5-33.4-16.5s-20.3,4.2-27.3,12.5c-7,8.3-10.5,19.1-10.5,32.2s2.4,18.7,7.2,25.7c4.8,7,10.7,12.7,17.8,17.1,7.1,4.4,17.2,9.9,30.3,16.5,20.2,9.7,36.6,19.2,49.2,28.6,12.6,9.4,23.5,23.6,32.8,42.4,9.3,18.9,13.9,43.4,13.9,73.7s-5.8,64.5-17.4,86.8c-11.6,22.4-26.2,38.5-43.7,48.4-4.2,2.4-8.4,4.4-12.7,6.2h958.8-17.1ZM404.8,1080l-23-97.4h-113.6l-22.1,97.4h-69.7l118.5-481.6h61.9l121.8,481.6h-73.8,0ZM766.8,1080h-56.2l-136.1-292.8v292.8h-64v-481.6h56.2l136.1,292.1v-292.1h64v481.6h0ZM1336.3,1080h-70.1v-200h-123.8v200h-70.1v-481.6h70.1v182.2h123.8v-182.2h70.1v481.6ZM1597,1080l-23-97.4h-113.6l-22.1,97.4h-69.7l118.5-481.6h61.9l121.8,481.6h-73.8Z"/>
    </g>
  </g>
</svg>