<?xml version="1.0" encoding="UTF-8"?>
<svg id="_图层_2" data-name="图层 2" xmlns="http://www.w3.org/2000/svg" viewBox="0 0 1024 1024">
  <g id="_图层_1-2" data-name="图层 1">
    <path d="M895.13,554.46c1.36,1.15.13,1.92-1.5,2-9.61.47-19.35-.38-28.97,0-28.35,1.11-57.83,5.08-85.92,6.99-34.09,2.32-67.11,5.87-100.9,8.99-36.95,3.41-74.36,9.35-110.89,13.99-42.04,5.34-83.7,10.67-124.88,17.98-5.62,1-11.35,1.05-16.98,2-109.04,18.37-218.64,36.42-324.68,61.94l-6.49,1,2.5-2c8.88-2.68,17.13-5.58,25.97-7.99,2.16-.59,6.84-3.41,8.99-4s4.63-.44,6.99-2c.71-.47,3.02-2.78,3.5-3.5,1.07-1.62,2.04-5.03,3-6.99,24.59-50.68,48.1-98.85,73.93-148.85,15.45-29.91,32.53-62.95,52.95-89.91.47-.62,1.93-2.16,2.5-2.5.22-.13.69.14,1,0,.41-.19.61-.84,1-1,.54-.22,1.35.18,2,0,.41-.12.63-.93,1-1,.91-.17,3.09-.17,4,0,.38.07.61.91,1,1,.9.2,2.17-.23,3,0,3.82,1.05,11.37,6.43,14.99,8.99,13.19,9.33,22.64,22.28,35.96,30.97,1.52.99,4.15,3.49,5.99,4,.83.23,2.09-.2,3,0,.39.09.63.94,1,1,1.69.25,6.38.29,7.99,0,.37-.07.6-.9,1-1,2.52-.62,3.76-.99,5.99-2,13.15-5.94,25.39-21.54,34.47-32.47,34.41-41.41,61.76-89.66,90.91-136.87,10.67-17.28,21.51-35.4,32.97-50.95,2.32-3.14,7.61-10.77,10.49-12.49.22-.13.69.14,1,0,.41-.19.61-.84,1-1,.55-.22,1.37.2,2,0,.48-.15.69-1.36,2-1,.4.11.62.92,1,1,.92.19,2.17-.23,3,0,.46.13,1.32,1.54,2,2,.24.16.79-.15,1,0,2.92,2.13,5.56,6.84,7.49,9.49,15.41,21.14,27.62,48.11,39.96,70.93,31.41,58.12,64.38,114.32,109.89,162.84,6.72,7.16,13.88,14.37,21.48,19.48.95.64,2.86,2.75,4,3,2.46.53,12.09.3,14.99,0,5.07-.52,10.99-2.98,15.98-4,4.06-.83,8.07-.81,11.99-2,1.95-.59,2.72.95,3,1,1.51.27,3.57-.32,5,0,.36.08.57.83,1,1,.67.27,2.58.72,3,1,1.46.97,6.29,5.95,7.49,7.49,12.35,15.86,22.23,38.26,30.97,55.95,1.97,3.98,4.7,8.48,5.99,12.99.05.17,2.33,2.45,2.5,2.5l65.44,2ZM688.33,453.56c-4.13-4.13-10.07-13.46-13.99-18.48-35.05-44.93-66.63-96.56-95.91-147.86-9.61-16.84-18.89-33.75-27.97-50.95-1.65-.96-2.93-5.06-4.5-5.49-4.71-1.29-6.34,5.1-9.49,7.49-30.62,49.91-57.56,101.54-90.91,149.85-15.08,21.85-34.38,47.9-56.44,63.44-.68.48-5.64,3.89-5.99,4-.66.19-1.5-.23-2,0-.65.3-2.54,1.87-3,2-.83.23-2.09-.2-3,0-.39.09-.63.94-1,1-2.07.3-6.87.26-8.99,0-.98-.12-4.77-1.68-5.99-2-16.75-4.3-33.56-15.79-45.96-26.97-4.15-3.75-9.9-11.28-13.99-13.99-.41-.27-2.31-.75-3-1-.42-.15-.63-.91-1-1-2.27-.52-2.79.45-4,1-.31.14-.78-.13-1,0-.96.57-3.59,3.43-4.5,4.5-3.64,4.27-6.78,9.85-9.99,14.99-13.87,22.2-26.54,46.69-37.96,68.93-15.49,30.15-30.54,60.18-44.96,89.91-7.48,15.42-15.73,30.88-21.98,46.95-.27.7-1.35,3.15-1,3.5,1.03,1.03,3.17-.92,3.5-1,8.16-2.05,16.02-3.89,23.98-5.99,42.23-11.16,84.84-21.85,127.88-30.97,26.27-5.56,52.23-10.28,78.92-14.99,29.37-5.18,59.19-10.51,88.91-14.99,11.65-1.75,23.32-2.24,34.97-4,21.87-3.29,44.83-5.67,66.93-7.99,19.6-2.06,39.1-2.65,58.94-4,39.64-2.68,80.59-6.08,120.88-6.99,13.64-.31,27.32.23,40.96,0,3.58-2.56-2.03-6.06-1.5-9.49-7.72-15.39-14.16-31.02-21.98-45.96-.49-.93-1.48-3.3-2-4-.56-.76-2.81-3.09-3.5-3.5-.22-.13-.69.14-1,0-.43-.2-.63-.89-1-1-1.95-.59-2.47.83-3,1-1.06.35-2.05.69-3,1-6.99,2.32-12.88,2.93-19.98,4-.38.06-.64.96-1,1-2.42.25-6.57.25-8.99,0-.36-.04-.62-.94-1-1-1.55-.23-3.47.25-5,0-.79-.13-3.96-1.65-5-2-7.48-2.5-14.84-7.23-20.98-11.99-2.67-2.07-4.15-3.97-5.99-5-1.27-.7-19.78-19.21-20.48-20.48-1.51-2.71-1.46-.96-2-1.5Z"/>
  </g>
</svg>